<?xml version="1.0" encoding="UTF-8"?>
<svg id="Layer_1" data-name="Layer 1" xmlns="http://www.w3.org/2000/svg" viewBox="0 0 409.63 210.99">
  <defs>
    <style>
      .cls-1 {
        fill: #fff;
      }
    </style>
  </defs>
  <path class="cls-1" d="M111.2,112.83v-.95c-5.91-4.41-4.51-9.41.64-13.68-5.84-2.41-8.74-3-10.59-9.57-3.12-11.06-.8-28.42.19-39.89.69-7.94-.55-23.36,7.21-27.93,5.96-3.51,28.68-2.81,35.9-1.51,3.37.61,8.3,2.36,10.6,5.02,3.1,3.59,4.3,16.02,4.86,21.17,4.66,43.57,3.1,85.34,3.94,128.81.17,8.7,1.06,18.47-8.78,21.86-7.6,2.61-30.86,2.69-38.88,1.08-9.14-1.84-12.39-4.87-14.01-13.97-2.37-13.34-2.83-42.86-1.47-56.43.63-6.31,5.32-10.9,10.4-14.01ZM146.85,30.99c-2.15-2.13-25.45-2.55-29.4-2.03-6.49.85-4.51,9.15-4.95,13.92-1.17,12.51-2.93,25.12-1.97,37.77.65,8.53,2.12,5.87,8.35,7.92,9.6,3.16,6.77,10.1,1.54,16.14,11.79,10.06-7.64,16.52-9.08,22.91-.93,4.12.59,12.63.54,17.47-.09,10.45-1.08,20.65-.02,31.19.84,8.36,1.24,10.43,10.16,11.32,7.24.72,18.55.19,25.88-.64,1.53-.17,3.04-.81,4.54-1.17.6-.43.89-2.26.99-3.05,1.26-10.57-2-24.69-.6-35.76,1.68-34.85.23-70.07-3.88-104.73-.21-1.78-1.38-10.55-2.09-11.25Z"/>
  <path class="cls-1" d="M247.07,22.58c6.86-.65,12.28,1.6,18.14,4.9,8.64,4.87,14.14,8.55,17.6,18.19,6.38,17.74,9.92,38.85,15.63,57.26,4.27,13.78,10.07,27.14,14.51,40.8,6.03,18.52,10.49,29.24-10,38.85-6.22,2.92-20.27,8.67-26.75,7.65-5.21-.82-8.18-7.15-9.97-11.5-4.57-11.06-7.84-25.99-11.03-37.77-5.81-21.45-10.61-43.21-16.78-64.56-3.52-12.21-10.72-28.08-12.53-40.17-1.15-7.71,2.61-8.85,8.94-10.92,3.38-1.1,8.73-2.4,12.24-2.73ZM277.96,179.04c1.73,1.69,5.88-.44,7.98-1.12,3.9-1.26,19.42-7.15,20.8-10.44s-.33-8.52-1.15-11.84c-3.9-15.78-11.95-32.89-16.91-48.82-5.46-17.54-9.67-35.49-14.46-53.22-.29-.54-.69-.6-1.25-.62-1.91-.05-7.1,1.72-9.83,1.92-7.99.6-20.49.8-16.62-10.76.82-2.44,7.83-11.14,1.79-11.16-1.42,0-10,1.95-10.91,2.74l-.34,1.01,40.89,142.3ZM269.33,43.2c-1.07-1.09-7.66-5.89-8.45-5.2l-1.96,6.51,10.41-1.31Z"/>
  <path class="cls-1" d="M210.63,60.97c6.2-.29,12.6-1.01,18.16,2.28,11.12,6.58,6,29.53,5.4,40.16-1.46,26.15-1.53,52.35-2.11,78.58-1.5,4.8-2.7,7.63-7.77,9.15-6.11,1.82-31.03.93-38.63.47-11.44-.69-18.55-3.32-19.81-15.98-1.76-17.6,2.05-35.79,2.62-53.33.24-7.39-1.55-13.38-1.36-20.23.23-7.91.63-17.45,1.34-25.34,1.72-19.13,16.86-13.97,30.93-14.62,3.51-.16,7.64-.97,11.23-1.14ZM222.48,148.63c-.3-15.57.49-31,1.31-46.52.32-6.11,3.27-24.83-.07-29.23-2.76-3.65-17.22-.58-21.74-.39-3.88.16-19.42-.73-21.42.7-1.09.78-1.43,2.92-1.59,4.26-1.86,15.04.59,30.96-.05,46.15l-1.91,23.66,45.49,1.37ZM221.83,159.69l-45.55-1.3v16.59c0,.87,1.44,4.23,2.34,4.82,1.02.65,6.18,1.25,7.75,1.36,8.11.58,17.15-.13,25.4-.02,3.27.04,6.98,1.81,10.06-.95v-20.5Z"/>
  <path class="cls-1" d="M195.02,196.98c31.09-1.64,71.14-1.52,101.97,1.12,2.13.18,7.84.52,9.28,1.13,3.22,1.37,3.78,6.3,1.16,8.63-3.27,2.92-17.87.11-22.76-.04-27.87-.85-58.85-1.93-86.6-.65-18.31.85-40.38,5.35-58.54,3.28-9.15-1.04-8.34-11.38,1.96-11.11,18.72.5,35.07-1.4,53.54-2.37Z"/>
  <path class="cls-1" d="M101.96.45c13.37-1.12,29.13.14,42.75.47,22.14.54,44.23,2.3,66.36,3.27,6.26.28,14.36-.84,20.23-.06s6.74,9.67-1.96,10.47c-5.59.51-13.8.2-19.57,0-34.57-1.21-69.53-4.75-104.12-3.96-4.46.1-13.96,3.24-14.03-4.19-.05-5.79,6.08-5.64,10.35-6Z"/>
  <path class="cls-1" d="M267.17,79.21c1.78,1.97,6.13,24.01,7.42,28.7,4.15,15.19,9.76,29.82,15.45,44.47-.62,6.24-7.22,7.6-10.42,1.92-7.02-12.45-14.38-39.43-17.77-53.81-.97-4.11-4.4-16.45-3.43-19.72s6.42-4.16,8.77-1.56Z"/>
  <path class="cls-1" d="M194.33,79.8l21.02.79c5.08,1.89,4.08,9.28-1.05,10.08-3.5.55-17.71.45-20.99-.41-6.32-1.65-5.23-9.82,1.01-10.46Z"/>
  <path class="cls-1" d="M191.08,131.82l21.68,1.49c5.06,2.41,4.2,9.45-1.65,10.13-3.82.44-17.84-.21-21.16-1.64-5.27-2.27-3.65-8.31,1.13-9.98Z"/>
</svg>