<?xml version="1.0" encoding="UTF-8"?>
<svg id="Layer_1" data-name="Layer 1" xmlns="http://www.w3.org/2000/svg" viewBox="0 0 512 512">
  <defs>
    <style>
      .cls-1 {
        fill: #9961f4;
      }

      .cls-2 {
        fill: #999;
      }
    </style>
  </defs>
  <g>
    <g>
      <path class="cls-1" d="M223.73,274.62c8.15,11.95,27.11-4.34,20.66-16.53-1.99-3.75-7.18-5.06-10.53-3.85-1.81.65-3.86,5.16-6.83,5.77-8.95,1.84-9.59-8.44-3.23-14.95,9.63-9.85,26.6-5.92,31.93,8.3,9.42,25.16-19.09,50.63-37.27,35.11-2.25-1.92-4.7-7.15-5.02-7.43-2.52-2.17-1.95,9.64-9.29,7.82-7.85-1.94-3.27-12.97-2.51-18.62,1.04-7.7,2.44-16.99,2.76-24.66.57-13.77-3.78-46.32,1.73-56.91,4.52-8.68,11.32-1.93,12.19,6.98,2.16,22.15-7.2,60.49,5.42,78.98Z"/>
      <path class="cls-1" d="M286.97,279.31c5.33,4.72,1.13,13.62-7.42,12.33-31.4-4.73-16.81-55.67-15.39-75.12.42-5.78-1.7-21.55,2.15-25.04,3.06-2.77,10.61-1.89,12.45,1.79,1.62,3.24,1.16,24.28.86,29.3-.82,13.68-6.6,32.63-4.18,45.72,1.7,9.21,7.43,7.37,11.54,11.01Z"/>
    </g>
    <g>
      <path class="cls-1" d="M59.76,210.04c-15.63,4.67-7-27.11,3.03-27.71,11.54-.69,9.11,23.6,8.54,32.2-.71,10.64-6.68,50.88-1.29,57.57,1.35,1.67,5.49,3.01,7.45,2.97l37.86-6.81c7.23,2.25,7.71,11.78-.03,14.51s-27.99,6-36.09,6.3c-35.97,1.37-20.11-52.73-19.46-79.03Z"/>
      <path class="cls-1" d="M190.93,280.78c-2.85,3.22-14.93,3.37-18.79,1.75-1.4-.59-5.08-4.05-5.77-3.48-.21.17-1.25,3.24-2.94,4.96-6.44,6.56-18.07,10.58-26.2,7.76-24.22-8.4-11.26-57.49,8.69-52.5,5.55,1.39,11.76,11.21,5.52,16.21-6.59,5.28-8.75-8.83-13.9,5.18-9.3,25.31,19.37,20.01,22.01,4.65.95-5.52-3.52-18.74,5.54-18.35,7.35.32,6.09,10.15,7.6,15.91,3.45,13.08,13.39.84,18.46,7.65,2.11,2.84,1.94,7.83-.22,10.26Z"/>
    </g>
  </g>
  <g>
    <path class="cls-2" d="M448.91,281.04c-3.28,1.02-4.76,5.14-8.06,6.73-14.22,6.87-21.27-11.6-19.93-26.13.58-6.32,4.55-16.97,10.97-12.49,6.42,4.48.32,11.58.47,17.35.05,1.75,1.67,8.18,2.95,8.54,4.57,1.27,9.54-22.59,14.65-25.25,7.81-4.06,10.02,9.04,10.51,15.76,5.96,80.73-66.61,63.64-110.25,60.44-5.02-.37-13.61,1.44-17.73-1.54-4.74-3.43-2.73-12.38,2.16-13.23,3.9-.68,17.63,3.29,22.97,3.81,11.25,1.08,21.9.31,33.01-.03,22.77-.71,55.87,3.28,58.28-33.95Z"/>
    <path class="cls-2" d="M307.44,236.29c6.38-.92,12.43,2.71,16.71,8.26,2.94,3.82,6.21,9.08,2.09,13.51-6.59,7.1-10.54-5.48-14.23-6.81-4.48-1.62-8.17.46-9.93,5.56-6.34,18.36,23.75,25.12,31.54,10.19,3.35-6.42-4.23-18.5,2.94-22.43,9.06-4.97,9.12,8.6,10.47,14.3,1.26,5.35,4.47,10.87,8.25,14.02,4.24,3.53,13.97,5.48,9.42,14.73s-18.47-5.26-22.77-9.6c-3.17,2.24-5.22,5.47-8.64,7.57-11.95,7.35-34.16,3.87-41.18-11.23-7.25-15.59.43-35.9,15.35-38.06Z"/>
    <path class="cls-2" d="M414.83,247.29c1.82,2.32,1.56,8.97-.97,10.81-5.4,3.92-12.52-5.03-21.69,1.75-9.66,7.14-7.35,20.9-11.21,25.94s-9.89,1.62-10.54-5.22-.99-21.22-.87-28.03c.2-11.42,10.91-11.96,11.63-1.49,4.98-2.56,8.75-7.21,14.45-8,4.09-.57,16.34.61,19.21,4.26Z"/>
  </g>
</svg>